<?xml version="1.0" encoding="utf-8"?>
<!-- Generator: Adobe Illustrator 24.0.0, SVG Export Plug-In . SVG Version: 6.00 Build 0)  -->
<!DOCTYPE svg PUBLIC "-//W3C//DTD SVG 1.1//EN" "http://www.w3.org/Graphics/SVG/1.1/DTD/svg11.dtd" [
	<!ENTITY ns_extend "http://ns.adobe.com/Extensibility/1.0/">
	<!ENTITY ns_ai "http://ns.adobe.com/AdobeIllustrator/10.0/">
	<!ENTITY ns_graphs "http://ns.adobe.com/Graphs/1.0/">
	<!ENTITY ns_vars "http://ns.adobe.com/Variables/1.0/">
	<!ENTITY ns_imrep "http://ns.adobe.com/ImageReplacement/1.0/">
	<!ENTITY ns_sfw "http://ns.adobe.com/SaveForWeb/1.0/">
	<!ENTITY ns_custom "http://ns.adobe.com/GenericCustomNamespace/1.0/">
	<!ENTITY ns_adobe_xpath "http://ns.adobe.com/XPath/1.0/">
]>
<svg version="1.1" id="Capa_1" xmlns:x="&ns_extend;" xmlns:i="&ns_ai;" xmlns:graph="&ns_graphs;"
	 xmlns="http://www.w3.org/2000/svg" xmlns:xlink="http://www.w3.org/1999/xlink" x="0px" y="0px" viewBox="0 0 1052.95 841.89"
	 style="enable-background:new 0 0 1052.95 841.89;" xml:space="preserve">
	<style type="text/css">
	:root
{
    --fill_used : #FFCCBC;
    --fill_not_used: #77A6F7;
    --fill_text:#CDD1E4;
    --text_shadow: 1px 0px 1px #CCCCCC, 0px 1px 1px #EEEEEE, 2px 1px 1px #CCCCCC, 1px 2px 1px #EEEEEE, 3px 2px 1px #CCCCCC, 
                    2px 3px 1px #EEEEEE, 4px 3px 1px #CCCCCC, 3px 4px 1px #EEEEEE, 5px 4px 1px #CCCCCC, 4px 5px 1px #EEEEEE,
                    6px 5px 1px #CCCCCC, 5px 6px 1px #EEEEEE, 7px 6px 1px #CCCCCC;
    --box_shadow:drop-shadow();
    /* --hover_text_shadow:
    --hover_box_shadow: */
    
}
/* #Capa_1{
width: 50%;
height: 40vw;
} */

#ST_punto_vacio_1,
#ST_punto_vacio_3,
#ST_punto_vacio_4,
#ST_punto_vacio_5,
#ST_punto_vacio_6,
#ST_punto_vacio_7,
#ST_punto_vacio_8,
#ST_punto_vacio_10{
    fill: var(--fill_not_used);
    stroke:#04293A;
    stroke: 10;
}

#SE_Puntos,
#ST_punto_vacio_2,
#ST_punto_vacio_9
{
    fill: var(--fill_used);
    stroke:red;
    stroke: 100;  
}



	</style>
	 <!-- <style>
    @import url("./CSS/Mapa.css");
    </style> -->
	<metadata>
		<sfw  xmlns="&ns_sfw;">
			<slices></slices>
			<sliceSourceBounds  bottomLeftOrigin="true" height="712" width="653.71" x="-28.23" y="120.94"></sliceSourceBounds>
		</sfw>
	</metadata>
	<a xlink:href="https://www.youtube.com/" target="" xlink:title="ancon">
		
	
	<path  d="M491.28,187.05c-1.29,0.76-2.58,1.52-3.86,2.28c-0.79,0.5-1.72,1.17-2.66,2.08c-0.64,0.62-1.16,1.23-1.59,1.78
		c-0.93,0.46-1.86,0.93-2.79,1.39c-0.87,0.6-1.84,1.35-2.84,2.28c-0.92,0.86-1.67,1.7-2.29,2.47c-0.67,0.42-2.12,1.21-4.12,1.3
		c-1.47,0.06-2.64-0.29-3.33-0.55c-1.1-0.57-2.2-1.14-3.3-1.71c-0.65-0.07-7.05-0.7-9.19,2.89c-0.27,0.46-0.83,1.58-0.45,5.37
		c0.24,2.39,0.87,5.9,2.64,10.03c0.91,1.09,2.69,3.57,3.09,7.14c0.19,1.67,0.02,3.1-0.21,4.16c-0.71,1.41-1.77,4.08-1.29,7.22
		c0.16,1.03,0.36,2.26,1.36,3.36c1.29,1.43,3.05,1.68,3.66,1.74c0.66-0.19,1.61-0.52,2.65-1.12c2.43-1.41,2.68-2.78,4.19-3.03
		c2.05-0.35,3.95,1.77,4.19,2.05c0.88,1.01,0.99,1.81,1.95,4.72c0.61,1.85,1.16,3.33,1.52,4.25c0.31,0.65,0.74,1.81,0.69,3.26
		c-0.04,1.23-0.41,2.12-0.86,3.17c-0.41,0.95-1.1,2.29-2.29,3.73c-0.8,1.06-1.6,2.15-2.41,3.27c-0.79,1.1-1.55,2.18-2.28,3.25
		c-0.48,0.95-0.96,1.91-1.44,2.86c0.07,0.84,0.18,3.37-1.4,5.96c-1.55,2.54-3.78,3.61-4.57,3.94c-2.68,2.23-5.19,3.31-6.8,3.86
		c-2.38,0.81-4.53,1.05-6.09,1.22c-1.67,0.18-3.08,0.22-4.11,0.22c-0.84,0.04-2.07-0.01-3.38-0.53c-1.6-0.64-2.49-1.64-4.18-3.62
		c-4.62-5.37-4.88-5.68-5.7-6.29c-1.6-1.18-3.19-2.35-5.35-2.49c-3.09-0.2-3.78-0.21-3.78-0.21c-1.27-0.01-1.96,0.05-2.29-0.41
		c-0.36-0.48-0.07-1.2,0.37-2.45c0.34-0.97,0.8-2.37,1.28-4.13c0.58-1.88,1.16-3.77,1.74-5.65c3.65-21.36-1.68-41.71-7.55-61.84
		c-3.03-10.37-7.96-20.16-11.53-30.42c-3.27-9.4-6.42-18.67-7.37-28.78c-1.05-11.08-6.05-21.33-9.23-31.97
		c-3.55-19.33-12.48-35.33-28.9-46.71c-3.53-3.84-2.28-9.07-3.9-13.47c-0.37-2.27-3-5.29,1.72-5.98c8.01-1.17,15.42-6.18,23.92-3.97
		c4.92,1.28,7.85-2.49,10.34-4.9c6.07-5.89,15.17-3.74,21.14-9.13c5.92,9.41,11.05,11.15,24.98,8.5c6.49-5.73,14.31-3.49,21.73-3.62
		c8.19-0.1,16.31,6.45,24.56,0.24c8.46-6.75,19.03-9.47,28.35-14.6c1.57-0.87,4.38,0.51,6.62,0.86c0.91,0.06,2.03,0.36,2.25,1.1
		c2.24,7.47,8.13,8.17,14.54,8c4.25,2.61,9.7,1.39,13.85,4.33c3.17,6.96-1.11,10.59-6.15,13.89c-1.57,1.02-4.54,1.46-2.94,4.24
		c5.02,8.71,4.5,18.65,6.34,28.03c1.23,6.29,3.39,11.71,8.11,16.07c0.58,0.72,1.06,1.5,1.47,2.32c1.8,13.66,2.44,27.24-2.84,40.41
		c-0.35,4.83-0.73,6.06-1.05,6.07c-0.32,0.01-0.31-1.2-1.36-2.16c-0.71-0.65-1.57-0.82-3.31-1.18c-0.74-0.15-1.73-0.35-3.06-0.35
		c-1.36,0-2.51,0.21-3.35,0.42c-1.06,0.48-2.28,0.96-3.65,1.38c-1.58,0.49-3.05,0.8-4.34,1.01c-1.36-0.34-2.87-0.65-4.51-0.89
		c-1.18-0.17-2.3-0.28-3.35-0.35c-2.07-0.5-3.77-0.43-4.84-0.31c-1.9,0.22-4.09,0.47-5.48,2.2c-1.02,1.28-1.14,2.78-1.14,3.54
		c0.55,2.47,0.76,4.51,0.85,5.95c0.1,1.63-0.01,1.45,0.11,5.06c0.1,2.73,0.17,3.01,0.02,3.94c-0.28,1.76-0.8,2.3-0.84,3.8
		c-0.03,1.31,0.32,2.38,0.61,3.06c0.48,0.8,2.09,3.68,1.12,6.74c-0.6,1.88-1.93,3.08-3.32,4.32c-1.57,1.4-3.1,2.24-4.15,2.72
		c0.02-0.01,0.03-0.03,0.05-0.04c-1.6,1.64-3.03,2.93-4.1,3.85c-1.91,1.64-2.97,2.55-4.62,3.43c-1.59,0.86-3.03,1.32-4,1.57
		c-0.92,0.82-1.83,1.63-2.75,2.45C493.63,185.67,492.46,186.36,491.28,187.05z" id="SE_Puntos"/>
	</a>


	<path  d="M399.34,281.11c-0.67-2.65-0.49-5.09,1.74-7.03c11.05-1.98,21.68-10.51,33.39-2.15
		c4.04,4.03,6.04,10.91,13.74,9.88c0.8-0.11,1.6-0.13,2.4-0.13c4.6,0.15,8.5-1.92,12.42-3.92c2.71-1.6,5.18-3.41,6.1-6.65
		c0.43-1.89,0.56-3.84,1.29-5.65c1.22-2.48,3.35-4.31,4.75-6.66c1.79-2.92,4.31-5.5,4.14-9.29c-0.83-3.06-2.02-6-3.06-8.98
		c-1.52-4.34-4.24-6.06-8.44-2.8c-1.16,1.34-2.5,2.33-4.36,2.34c-5-1.07-4.51-4.83-4.21-8.51c3.46-5.43,0.76-10.16-1.74-14.91
		c-0.68-2.56-1.46-5.08-2.1-7.63c-1.97-7.81-0.87-9.27,7.7-10.77c1.7,0.2,3.23,0.86,4.71,1.66c2,1.23,4.05,1.41,6.14,0.21
		c1.97-1,3.42-2.58,4.79-4.24c0.73-0.82,1.6-1.46,2.63-1.86c2.18-0.59,3.47-2.26,4.78-3.93c0.76-0.85,1.66-1.51,2.68-2.01
		c2.06-0.91,4.21-1.62,5.97-3.09c1.42-1.23,2.59-2.81,4.54-3.31c4.05-0.77,6.41-3.98,9.31-6.43c0.6-0.53,1.24-1,1.9-1.45
		c5.12-3.54,10.35-7.01,5.68-14.42c-0.21-0.82-0.28-1.65-0.27-2.5c0.76-3.75,0.96-7.53,0.74-11.34c0.21-3.45-1.92-6.85-0.26-10.34
		c2.19-2.93,5.26-3.02,8.47-2.67c2.55,0.19,5.11,0.31,7.61,0.86c3.91,1.65,7.12-0.86,10.58-1.85c5.33-1.05,9.96-0.54,12.12,5.44
		c1.11,4.65,3.92,8.18,7.42,11.26c5.92,9.61,9.2,20.83,17.74,28.83c9.72,16.63,20.68,32.51,29.97,49.39c2.42,4.39,5.5,7.97,10.62,8
		c8.13,0.05,16.14,2.12,24.3,1.19c9.41,2.41,16.22,7.45,18.85,17.42c1.43,5.43,6.56,6.05,11.19,6.91c4.65,1.59,8.44,4.5,11.99,7.79
		c0.95,0.94,1.79,1.96,2.55,3.05c4.94,9.8,14.46,10.41,23.55,11.26c4.86,0.45,9.67,1.1,14.49,1.79c1.89,0.38,2.93,1.76,3.83,3.29
		c1.93,5.57,4.33,10.58,11.69,9.5c9.45,1.19,4.15,8.73,5.77,13.31c1.01,5.17,3.88,9.97,3.16,15.49c-1.12,4.54-4.33,6.67-8.65,7.53
		c-2.81-0.12-5.1-1.72-7.6-2.71c-0.69-0.28-1.35-0.62-2.01-0.96c-2.71-1.62-5.48-1.3-8.28-0.25c-2.43,0.87-4.74,1.88-5.58,4.65
		c-0.72,3.62-3.12,6.12-5.63,8.55c-1.51,1.76-3.02,3.51-4.19,5.52c-1.52,2.89-2.1,5.88-2.02,9.2c0.11,4.81-2.83,5.03-6.47,3.51
		c-1.05-0.56-1.96-1.31-2.8-2.15c-2-2.44-4.06-2.68-6.19-0.13c-2.12,2.16-4.73,3.7-6.97,5.7c-2.46,2.15-2.81,5.04-2.76,8.06
		c-0.04,2.8,0.08,5.61-0.61,8.35c-0.93,3.48-3.74,6.09-4.48,9.67c-2.42,3.82-5.37,6.22-10.13,3.82c-1.9-1.42-3.53-3.8-6.4-1.78
		c-0.53,0.49-1.07,0.96-1.57,1.47c-2.19,2.26-2.75,5.3-3.9,8.06c-2.19,4.48-6.01,7.52-9.53,10.83c-3.67,2.57-4.19,6.11-3.08,10.15
		c0.11,1.21-0.07,2.38-0.55,3.5c-2.91,5.16-2.97,10.26,0.39,15.27c5.31,8.32-2.86,12.94-5.23,19.16c-1.49,2.05-3.65,3.29-5.67,4.69
		c-2.28,1.39-4.84,2.29-6.99,3.91c-2.78,1.93-2.13,5.28-3.23,7.9c-1.01,2.58-2.31,5.07-2.25,7.95c-0.13,3.04-0.07,6.08-0.8,9.06
		c-1.27,4.27-1.79,9.01-6.84,10.9c-2.36,0.92-4.79,1.6-7.31,1.9c-2.73,0.2-5.26,1.09-7.68,2.34c-0.7,0.33-1.44,0.56-2.19,0.75
		c-2.62,0.56-5.33,0.28-7.95,0.83c-2.76,0.63-4.42,2.79-6.36,4.56c-0.57,0.56-1.19,1.03-1.85,1.47c-2.79,1.68-5.34,0.84-7.82-0.75
		c-2.6-2.34-4.22-5.39-6.07-8.28c-1.05-1.85-1.83-3.89-3.71-5.14c-2.25-1.36-5.05-0.91-7.32-2.2c-2.87-1.95-3.1-4.71-2.26-7.72
		c0.81-2.9,0.91-5.71-0.55-8.44c-1.52-3.17-2.4-6.64-4.48-9.54c-0.44-0.63-0.82-1.3-1.17-1.98c-1.53-2.49-1.4-5.66-3.32-7.95
		c-2.51-0.81-3.75,1.68-5.73,2.19c-2.19,0.59-3.98-0.14-5.56-1.61c-0.57-0.58-1.06-1.23-1.51-1.9c-1.64-2.73-3.6-5.29-4.7-8.34
		c-0.48-1.54-0.56-3.12-0.37-4.71c0.57-2.92,1.71-5.84,0.1-8.8c-3.88-5.41-7.27-11.24-13.16-14.85c-6.04-4.15-6.52-11.53-10.01-17.16
		c-4.15-8.29-11.11-6.99-18.18-5.34c-2.13,0.44-4.22,0.41-6.28-0.32c-3.35-1.68-7.24-3.39-8.7-6.73c-3.91-8.88-10.7-9.14-18.54-7.38
		c-1.94,0.53-3.88,1.05-5.68,2c-1.5,0.77-3.07,1.35-4.75,1.58c-7.94,1.89-15.73,0.62-23.52-1.06c-0.91-0.2-1.77-0.52-2.59-0.95
		c-2.67-2.06-5.28-4.14-3.24-8.09c5.69-10.29,6.46-21.92,8.97-33.07c0.26-14.01,2.24-28.05-9.39-39.72
		c-5.24-5.26-5.79-13.74-6.56-21.18C402.56,285.91,402.45,283.03,399.34,281.11z" id="ST_punto_vacio_1"/>

	<path  d="M525.1,442.97c0.11,1.37,0.22,2.73,0.33,4.1c-0.45,0.97-1.27,3.07-1.04,5.79c0.28,3.36,1.97,5.61,2.64,6.42
		c1.15,1.51,2.29,3.03,3.44,4.57c0.61,0.82,1.22,1.64,1.82,2.46c1.72,0.98,2.91,0.95,3.66,0.77c0.59-0.15,0.67-0.33,3.34-1.75
		c1.14-0.61,1.7-0.88,2.35-0.71c0.68,0.17,1.11,0.73,1.34,1.1c0.42,1.13,0.84,2.27,1.28,3.42c0.46,1.2,0.92,2.39,1.38,3.57
		c0.25,0.44,0.5,0.89,0.75,1.33c1.69,3.47,3.17,6.5,4.22,8.65c1.16,2.38,1.84,3.77,1.81,5.75c-0.02,1.04-0.24,2.71-0.58,4.23
		c-0.43,1.95-0.77,2.45-0.53,3.52c0.24,1.08,0.92,1.98,1.53,2.79c0.53,0.7,0.79,1.06,1.26,1.41c1.08,0.82,2.09,0.77,3.67,1.07
		c0.87,0.17,2.13,0.48,3.64,1.13c0.75,0.72,1.58,1.62,2.4,2.73c1.06,1.45,1.8,2.83,2.31,3.98c1.69,2.23,3.39,4.47,5.08,6.7
		c0.39,0.31,1.05,0.77,1.96,1.06c1.81,0.58,2.66-0.1,3.69,0.52c1.27,0.78,1.93,3.06,1.05,3.97c-0.62,0.63-1.81,0.4-2.11,0.34
		c-3.06,1.21-4.73,2.82-5.68,4.02c-2.08,2.63-1.38,4.15-4.29,9.46c-0.87,1.59-1.84,3.11-2.82,4.64c-1.5,2.36-2.26,3.53-2.93,4.34
		c-2.7,3.21-4,2.67-5.69,5.29c-1.03,1.59-0.57,1.81-2.17,5.11c-0.45,0.92-1.29,2.64-2.44,4.3c-0.69,0.99-2.93,4.02-6.99,6.47
		c-3.7,2.23-7.19,2.92-9.19,3.16c-3.19,0.18-6.4,0.36-9.62,0.52c-2.84,0.15-5.66,0.29-8.48,0.42c-4.84-1.03-9.52-2.89-14.6-2.56
		c-3.33-0.05-6.66,0.04-9.94-0.67c-5.63-1.83-11.43-0.85-17.16-1.07c-1.45,0.03-2.9,0.02-4.35,0.01c-6.03-0.05-6.96-0.01-11.55-0.01
		c-6.76,0-7.65,0.05-10.68-0.05c-4.78-0.16-7.2-0.25-8.49-0.94c-2.69-1.45-4.61-3.76-7.01-3.97c-0.67-0.06-1.4,0.03-2.21,0.33
		c-0.78,0.24-1.57,0.4-2.37,0.54c-2.59,0.45-5.23,0.51-7.81,1.05c-2.99,0.63-6.18,0.75-7.56-2.56c-1.34-3.22,1.56-4.58,3.73-5.99
		c0.99-0.64,1.89-1.35,2.63-2.25c1.2-1.64,2.19-3.41,3.17-5.18c3.77-8.16,7.42-16.4,15.21-21.73c1.98-1.28,3.94-2.61,6.06-3.65
		c1.08-0.89,3.55-1.47,0.62-3.17c-2.17-0.43-4.33-0.25-6.5-0.12c-5.29,0.64-10.99-0.58-15.5,3.5c-1.04,0.56-2.17,0.77-3.34,0.75
		c-2.64-0.34-5.1,0.55-7.6,1.19c-3.73,0.92-7.21,2.37-10.2,4.84c-3.32,0.43-6.29,2.36-9.73,2.3c-3.77-0.94-7.73-2.82-10.15,2.25
		c-0.72,1.49-1.64,2.79-3.17,3.54c-1.65,0.6-3.3,1.22-4.97,1.84c-1.25,0.47-2.5,0.95-3.73,1.42c-0.56,0.46-0.82,1.17-0.69,1.83
		c0.13,0.63,0.59,0.99,0.73,1.09c0.1,0.23,0.47,1.04,1.4,1.49c0.67,0.33,1.3,0.31,1.57,0.28c3.8,1.75,4.23,5.72,5.88,8.9
		c0.3,3.18,1.82,5.82,3.73,8.29c0.71,1.5,0.78,3.08,0.67,4.69c-0.11,5.64,1.17,9.77,8.25,7.76c4.04-0.54,7.92-0.64,10.2,3.68
		c0.88,4.04,2.8,7.54,5.09,10.99c3.68,5.55,3.88,11.34-0.3,16.91c-5.64,6.42-13.24,7.95-21.21,8.58c-3.91,0.65-7.8,1.38-11.69,2.13
		c-9.53,0.09-13.7-8.51-20.62-12.67c-6.76-7.58-14.94-13.52-22.91-19.69c-2.79-2.87-6.09-5.11-9.34-7.4
		c-1.87-1.66-4.21-2.83-5.39-5.21c-2.24-6.8,2.01-12.58,2.95-18.87c0.75-2.92,2.73-5.59,1.82-8.85c-0.87-2.63-2.35-4.95-3.58-7.4
		c-1.78-4.76-2.83-9.59-6.62-13.71c-4.45-4.83-2.19-15.76,3.49-22.89c0.15-0.02,0.36-0.06,0.6-0.14c0.3-0.1,1.92-0.62,2.14-1.87
		c0.16-0.91-0.45-1.97-1.55-2.5c-0.66-0.45-1.26-0.93-1.87-1.43c-3.93-6.1-7.49-12.31-13.94-16.52c-4.61-3.01-2.32-5.73,2.05-7.02
		c10.83-9.24,27.78-6.81,36.85-19.59c4.5-6.35,6.99-13.9,13.28-19.29c3.28-2.82,5.76-3.95,9.83-3.38c7.86,1.11,14.51-1.21,20.55-6.75
		c10.41-9.55,19.16-20.38,27.04-32.01c0.12-0.13,0.91-0.93,2.09-0.87c1.06,0.05,2.01,0.78,2.41,1.85c0.35,0.36,0.78,0.73,1.28,1.09
		c1.69,1.21,3.42,1.62,4.55,1.78c4.01,1.13,9.59,2.15,16.18,1.68c2.64-0.19,5.04-0.59,7.15-1.07c1.61-0.64,3.22-1.28,4.83-1.91
		c1.57-0.7,3.99-1.58,7.05-1.95c3.2-0.39,7.84-0.95,11.26,1.63c1.4,1.06,0.67,1.19,4.8,6.24c2.21,2.69,3.16,3.56,4.09,4.26
		c1.96,1.47,3.89,2.24,5.24,2.66c1.11,0.23,2.58,0.42,4.3,0.34c2.11-0.1,3.83-0.56,5.04-0.99c2.02-0.45,7.13-1.28,10.97,1.62
		c1.72,1.31,2.66,2.97,4.12,5.54c2.03,3.59,2.54,5.9,3.4,7.97c1.19,2.89,3.61,6.67,9.04,10.37
		C517.97,433.62,521.54,438.29,525.1,442.97z" id="ST_punto_vacio_2"/>


	<path  d="M312.22,499.06c-4.68,2.88-5.71,9.66-6.1,12.28c-0.5,3.28-0.95,6.31,0.69,8.73c0.28,0.41,1.58,2.23,3.07,4.22
		c1.2,1.6,1.67,2.19,1.47,2.53c-0.38,0.63-2.57-0.64-5.89-0.99c-4.33-0.46-5.03,1.22-7.51,0.39c-2.92-0.98-2.92-3.64-6.25-6.6
		c-2.52-2.23-5.34-3.21-7.42-3.69c-0.62-0.57-1.59-1.33-2.93-1.88c-1.91-0.78-2.56-0.31-5.14-0.82c-1.48-0.29-4.09-0.82-6.26-2.8
		c-0.84-0.77-1.45-1.58-1.88-2.27c-0.3-1.1-0.7-2.77-0.97-4.84c-0.66-5.06,0.35-5.68-0.48-9.68c-0.39-1.86-0.89-3.09-0.63-5.14
		c0.17-1.36,0.59-2.44,0.93-3.15c0.41-0.15,1.8-0.72,2.72-2.25c0.93-1.55,0.76-3.07,0.7-3.5c7.64-1.8,15.99-1.7,21.89-8.18
		c2.12-1.18,4.22-2.48,6.83-1.69c-2.12,0.95-4.55,2.37-4.54,4.09c0.01,1.67,2.32,2.9,3.05,3.31c3.29,1.86,7.98,6.17,14.19,16.8
		c1.3,0.72,2.85,1.79,2.76,2.96C314.44,497.92,313.12,498.51,312.22,499.06z" id="ST_punto_vacio_3"/>

	<path d="M270.34,479.59c0.07,0.64,0.14,2.1-0.7,3.5c-0.21,0.35-0.93,1.45-2.72,2.25c-4.29,1.92-7.44-1.26-11.8,0.14
		c-4.03,1.29-7.32,5.43-7.66,9.54c-0.16,1.92,0.32,3.56,0.82,4.71c0.7,1.45,1.92,3.45,4.06,5.05c1.92,1.44,3.08,1.43,4.51,2.92
		c2.03,2.1,3.07,5.61,2.17,6.37c-1.13,0.96-5.18-2.58-15.61-10.85c-16.31-12.94-19.8-11.08-23.37-18.7
		c-2.91-6.22-7.98-10.44-13.32-14.41c-2.1-1.01-3.89-2.35-4.98-4.48c-0.21-1.78-1.06-1.59-2.15-0.69c-0.78-0.07-1.37-0.42-1.75-1.1
		c-1.08-2.35-1.38-5.09-3.52-6.9c-0.33-1.19-0.16-2.26,0.79-3.12c1.67-2.56,4.94-1.97,7.08-3.6c2.64,1.69,5.69,0.07,8.42,1.05
		c1.63,0.69,2.74,1.84,3.17,3.58c-0.11,3.87,1,6.89,5.36,7.63c4.25,2.26,8.53,4.36,13.51,2.27c1.88-0.78,3.76-1.41,5.67-0.09
		c2.91,1.96,5.31,4.43,7.16,7.41c1.24,1.79,2.52,3.53,4.58,4.5c0.67,0.32,1.29,0.7,1.91,1.1c0.64,0.4,1.25,0.83,1.86,1.26
		c2.96,1.26,6.06,0.81,9.12,0.76c0.74-0.01,2.4-0.89,4.65-0.71C268.78,479.07,269.72,479.36,270.34,479.59z" id="ST_punto_vacio_4" />

	<path d="M802.81,362.34c2.22-0.95,4.38-0.56,6.51,0.33c0.48,0.47,0.96,0.93,1.44,1.4c1.77,1.54,3.39,3.23,4.99,4.96
		c1.11,2.12,1.65,4.46,2.54,6.67c1.8,6.62,8.82,6.46,13,9.99c0.64,0.59,1.18,1.25,1.66,1.98c3.7,10.49,1.36,20.8-1.16,31.04
		c-0.94,3.83-2.02,7.41,1.35,10.57c1.61,2.06,2.99,4.26,3.96,6.69c1.45,4.77,0.49,10.02,2.88,14.61c0.23,0.8,0.3,1.62,0.24,2.44
		c-2.7,8.79-7.6,17.63,0.62,26.16c5.02,3.88,9.91,7.8,3.44,14.41c-1.03,1.38-2.1,2.7-2.63,4.42c-1.44,4.72-3.81,6.29-9.03,4.15
		c-7.92-3.24-12.3,0.84-10.58,9.19c0.86,4.18,3,8.26,0.48,12.55c0.05,0.94,0.02,2.11-0.49,2.29c-0.55,0.2-1.34-0.86-2.42-2
		c-0.07-0.08-1.55-1.3-4.51-3.76c-1.69-1.4-4.48-3.33-9.32-5.6c-1.18-0.17-2.98-0.41-5.19-0.6c-3.56-0.31-4.77-0.21-6.54-0.83
		c-1.19-0.41-2.85-1.23-4.61-3c-0.41-0.65-2.31-3.54-5.3-3.71c-0.35-0.02-0.75,0-1.19,0.08c-0.54,0.88-1.26,1.9-2.22,2.94
		c-1.39,1.5-2.81,2.53-3.93,3.21c-0.07,0.3-0.99,3.72-3.58,4.4c-1.79,0.46-3.47-0.62-5.21-1.73c-0.9-0.58-1.41-1.05-3.38-2.89
		c-0.59-0.54-3.44-3.2-3.75-3.49c-4.24-1.06-7.63-2.17-9.99-3c-4.37-1.54-8.31-3.25-9.73-1.74c-0.67,0.71-0.45,1.79-1.64,2.83
		c-0.86,0.75-1.82,0.9-2.19,1c-4.16,1.13-8.52,1.71-12.11,4.42c-1.49,0.73-3.08,0.92-4.71,0.83c-5.56-0.44-7.67,3-8.66,7.7
		c-0.58,2.1-1.94,3.47-3.91,4.29c-2.72,0.71-5.12,1.85-6.1,4.79c-0.77,1.47-1.74,2.77-3.09,3.75c-3.31,2.52-7.09,1.67-10.78,1.5
		c-4.32,1.36-8.58,3.76-13.16,0.8c-4.41-1.56-8.95-2.48-13.61-2.82c-1.79-0.08-3.57-0.23-5.33-0.54c-4.41-1.57-9.09-0.98-13.61-1.66
		c-5.84-1.19-11.58-2.92-17.6-3.05c-4.17,0.13-8.22-0.73-12.25-1.62c-5.73,0.21-11.2-2.65-17.02-1.45c-0.89,0.08-1.77,0-2.64-0.21
		c-1.23-0.98-3.58-2.58-6.94-3.36c-2.77-0.65-5.13-0.48-6.6-0.26c-1.18-0.92-1.64-2.4-1.17-3.58c0.43-1.08,1.47-1.51,1.69-1.6
		c0.38-0.32,0.76-0.64,1.13-0.96c0.51-0.56,1.1-1.14,1.79-1.72c1.62-1.37,3.24-2.26,4.57-2.84c1.26-0.18,2.61-0.32,4.04-0.41
		c0.93-0.06,1.82-0.08,2.68-0.09c0.41-0.11,0.82-0.22,1.23-0.33c1.55-0.75,3.33-1.49,5.34-2.12c0.89-0.28,1.76-0.51,2.58-0.71
		c1.09-0.1,2.28-0.25,3.55-0.5c1.86-0.36,3.5-0.85,4.91-1.36c0.86-0.27,2.89-1.04,4.54-3.04c1.24-1.51,1.73-3.05,1.93-3.91
		c0.44-1.23,1.02-3.09,1.42-5.41c0.45-2.65,0.43-4.54,0.47-5.71c0.09-2.54,0.61-6.2,2.59-10.9c0.08-0.97,0.28-2.23,0.77-3.62
		c0.37-1.05,0.81-1.93,1.22-2.63c0.54-0.66,1.38-1.53,2.59-2.31c1.42-0.93,2.77-1.35,3.68-1.55c1.06-0.55,2.25-1.26,3.49-2.15
		c1.38-0.99,2.52-2,3.43-2.92c0.46-0.91,1.19-2.27,2.21-3.84c1.91-2.95,2.7-3.39,3.77-5.59c0.72-1.48,1.54-3.16,1.44-5.4
		c-0.1-2.31-1.13-4.03-1.74-4.89c-0.56-0.62-3.43-3.87-3.05-8.51c0.2-2.49,1.25-4.31,1.89-5.23c0.51-0.85,1.15-2.17,1.33-3.86
		c0.23-2.13-0.46-3.18-0.46-4.86c0.01-1.44,0.53-3.51,2.98-6.04c2.01-1.88,4.02-3.75,6.04-5.63c1.43-1.45,2.4-2.81,3.03-3.82
		c0.54-0.87,0.9-1.56,1.01-1.8c0.78-1.56,1.21-2.96,1.46-3.96c0.08-0.7,0.4-2.59,1.95-4.16c0.73-0.73,1.49-1.16,2.06-1.41
		c0.33-0.25,1.1-0.74,2.16-0.77c2.09-0.06,3.34,1.76,3.44,1.9c0.26,0.22,2.57,2.13,5.69,1.44c2.81-0.63,4.1-2.89,4.3-3.25
		c0.64-1.4,1.3-2.81,1.99-4.24c1.13-2.34,2.28-4.61,3.43-6.8c0.24-1.4,0.45-2.97,0.56-4.66c0.13-1.85,0.13-3.55,0.06-5.08
		c-0.03-0.79,0.01-2.38,0.85-4.12c0.93-1.94,2.33-3.02,2.99-3.47c1.96-1.47,3.52-2.72,4.59-3.59c2.6-2.12,3.6-3.09,4.95-2.91
		c1.17,0.15,2.01,1.1,2.52,1.85c0.49,0.59,1.39,1.52,2.8,2.15c0.41,0.19,1.6,0.68,3.13,0.66c1.08-0.01,1.6-0.27,1.81-0.39
		c0,0,0.6-0.33,1.04-0.95c1.06-1.47,0.61-4.25,0.53-4.87c-0.24-1.82,0.08-4.5,2.64-8.21c1.18-1.49,2.36-2.98,3.53-4.48
		c1.09-0.89,2.63-2.36,3.96-4.52c1.21-1.98,1.82-3.83,2.14-5.14c0.4-0.59,1.01-1.35,1.92-2.06c1.55-1.2,3.13-1.61,4-1.77
		c0.8-0.31,2.5-0.86,4.6-0.5c1.26,0.21,2.23,0.67,2.87,1.03c0.67,0.32,1.34,0.64,2.01,0.96c0.91,0.49,1.97,0.99,3.16,1.44
		c1.63,0.62,3.14,1.02,4.44,1.27c0.86-0.09,3.75-0.49,6.12-2.91c1.71-1.75,2.31-3.7,2.53-4.62c-0.5-2.17-0.08-2.56,0.09-2.66
		c0.37-0.21,0.89,0.22,2.56,1.05c1.14,0.57,1.73,0.74,2.09,0.95c3.55,2.09,5.46,5.94,8.89,8.14c1.87,1.66,3.12,3.74,4.14,5.99
		c1.51,4.87,3.49,9.4,8.62,11.58c5.34,2.52,7.25,7.52,9.12,12.55c1.8,3.69,3.86,6.71,8.49,3.5
		C798.59,365.29,800.64,363.72,802.81,362.34z" id="ST_punto_vacio_5"/>

	<path d="M721.35,513.56c1.04-0.18,2.07-0.36,3.11-0.54c1.72-1.06,3.95-2.21,6.66-3.13c1.72-0.58,3.32-0.97,4.73-1.22
		c0.56-0.02,1.65-0.14,2.78-0.81c0.72-0.43,1.21-0.93,1.51-1.3c0.25-0.83,0.73-1.87,1.71-2.41c1.34-0.75,2.73-0.07,6.29,1.18
		c3.04,1.07,6.17,2.02,8.39,2.7c3.17,0.97,4.01,1.12,5.39,1.99c1.87,1.19,3.07,2.67,3.81,3.77c3.55,2.82,7.12,6.31,10.45-0.26
		c0.52-0.52,1.05-1.04,1.57-1.57c2.11-1.36,4.05-2.89,5.2-5.2c0.67-0.04,1.34-0.09,2.01-0.13c3.82,1.85,5.57,6.81,10.51,6.97
		c3.26-0.09,6.37,1.29,9.65,0.98c6.73,2.29,11.57,7.32,16.92,11.6c2.31,1.92,4.34,4.19,7.01,5.66c1.79,1.26,3.54,2.59,5.52,3.56
		c1.35,0.69,2.7,1.38,3.91,2.32c1.22,1.09,2.06,2.4,2.48,3.98c0.54,2.4,0.52,4.8,0.11,7.21c-0.16,0.81-0.41,1.58-0.72,2.34
		c-0.66,1.52-1.42,2.98-2.4,4.33c-1.25,1.63-2.66,3.85-4.46,4c-15.49,1.31-18.34,16.27-26.96,24.9c-3.65,3.65-6.29,8.33-10.96,11.01
		c-3.19,0.93-6.05-0.35-8.97-1.29c-1.66-0.65-3.22-1.47-4.71-2.44c-4.62-4.19-10.15-6.02-16.21-5.21
		c-10.13,1.35-20.47,2.2-29.47,7.88c-2.73,1.32-4.32,3.43-5.62,6.26c-6.1,13.35-9.63,15.18-23.63,12.83
		c-2.89-0.49-5.71-1.06-8.49,0.32c-1.91,1-3.6,2.37-5.6,3.21c-6.9,1.43-14.44,0.31-20.5,5.11c-5.16,3.08-8.57,8.15-13.23,11.79
		c-1.84,1.28-3.7,2.54-4.8,4.6c-0.38,0.67-0.79,1.32-1.2,1.97c-2.84,5.33-0.07,9.85,2.07,14.46c0.43,0.71,0.78,1.46,1.09,2.23
		c1.39,4,2.42,8.09,3.15,12.27c-0.25,5.59-1.36,10.72-5.25,15.23c-3.31,3.84-4.84,8.77-3.4,13.84c1.3,4.57-0.17,7.5-4.31,8.92
		c-6.85,2.35-13,6.43-20.1,8.12c-6.98-0.26-13.34-3.49-19.72-5.54c-8.61-2.77-16.57-1.03-24.77-0.65c-5.65,0.26-8.97,4.81-12.19,8.97
		c-1.3,1.24-2.77,2.14-4.6,2.32c-3.24-0.09-5.28-2.28-7.36-4.32c-23.16-22.74-48.58-42.96-72.24-65.14
		c-3.49-3.27-8.44-4.12-11.69-7.64c-4.19-5-8.89-8.46-15.99-6.27c-2.64,0.81-5.18-0.43-7.6-1.59c-8.8-6.45-18.63-8.8-29.51-8.91
		c-11.56-0.12-22.73-4.55-34.5-3.96c-2.91,0.15-5.58-1.54-7.39-4.09c-5.83-1.66-7.05-2.47-6.98-2.89c0.07-0.46,1.66-0.51,4.21-0.8
		c2.82-0.32,5.6-0.94,8.4-1.41c6.4-1.06,9.6-1.59,12.2-2.68c2.4-1.01,5.85-2.93,9.34-6.91c1.88-3.56,2.09-6.39,1.8-8.5
		c-0.54-3.83-2.76-5.29-3.74-9.44c-0.78-3.32-0.31-6.4,0.39-8.78c0.48-0.96,1.06-2.44,1.04-4.23c-0.03-2.02-0.78-2.37-1.08-4.44
		c-0.44-3,0.59-5.92,2.08-7.82c0.19-0.24,1.2-1.51,2.93-2.26c0.61-0.27,1.48-0.63,1.97-0.26c0.46,0.34,0.19,1,0.6,1.93
		c0,0,0.33,0.74,1.38,1.55c1.3,0.99,6.68,0.96,13.71-0.6c1.23-0.28,2.46-0.57,3.69-0.85c0.94,0.13,2.33,0.43,3.85,1.2
		c1.48,0.75,2.52,1.65,3.18,2.31c0.88,0.32,1.77,0.64,2.65,0.95c2.47-0.04,5-0.04,7.61,0.01c3.67,0.07,7.2,0.23,10.6,0.46
		c2.33-0.01,4.67-0.01,7.02-0.01c5.82,0.01,5.58,0.06,9.44,0.05c7.35-0.02,7.8-0.21,10.53,0.04c3.89,0.36,3.58,0.81,8.01,1.42
		c6.7,0.92,8.61,0.05,14.44,0.99c3.26,0.52,5.82,1.3,7.36,1.83c3.28-0.28,6.73-0.47,10.34-0.54c1.93-0.04,3.81-0.04,5.64-0.01
		c7.98-1.33,15.19-3.94,19.28-11.69c0.58-1.07,1.17-2.15,1.75-3.22c0.88-6.69,8.16-8.62,10.54-14.2l-0.03,0.05
		c3.26-4.25,4.69-9.42,7.11-14.1c0.48-0.6,1.09-1.25,1.88-1.87c2.22-1.75,4.56-2.29,5.91-2.48c1.69-0.41,5.63-1.1,10.01,0.58
		c2.16,0.83,3.76,1.98,4.84,2.9c1.05,0.08,2.2,0.11,3.44,0.08c0.87-0.02,1.68-0.08,2.45-0.16c3.12,0.57,6.4,1.08,9.85,1.48
		c1.73,0.2,3.43,0.37,5.08,0.51c2.11,0.46,4.4,0.87,6.85,1.19c3.48,0.45,6.71,0.65,9.63,0.68c1.72,0.31,3.47,0.64,5.25,1.01
		c2.16,0.44,4.25,0.91,6.28,1.4c3.72,0.22,7.64,0.58,11.76,1.12c2.72,0.36,5.35,0.77,7.86,1.22c2.12,0.15,4.53,0.45,7.13,1.01
		c2.02,0.43,3.86,0.94,5.5,1.49c2.22,1.41,4.14,1.68,5.17,1.73c1.53,0.08,2.74-0.24,4.65-0.73c1.84-0.48,3.32-1.04,4.32-1.47
		c0.78,0.27,5.32,1.74,9.63-0.76c2.04-1.18,3.23-2.79,3.84-3.78c0.71-2.09,1.79-3.15,2.48-3.68c0.82-0.63,1.76-1.03,2.51-1.35
		c1.65-0.7,2.47-0.71,3.45-1.52c0.62-0.52,1-1.1,1.2-1.49c0.38-1.08,0.77-2.17,1.15-3.25c0.07-0.46,0.58-3.4,3.36-5.2
		C718.18,512.88,720.87,513.45,721.35,513.56z" id="ST_punto_vacio_6"/>

	<path d="M440.89,521.79c-1.04,0.39-2.44,1.2-3.9,3.07c-4.36,2.74-6.97,5.69-8.51,7.79c-1.55,2.12-2.68,4.32-4.94,8.72
		c-1.31,2.55-2.33,4.7-3.01,6.2c-1.46,2.99-3.21,4.58-4.6,5.48c-1.59,1.03-4.18,2.12-4.29,3.91c-0.03,0.47,0.11,1.03-0.27,1.4
		c-0.44,0.43-1.11,0.12-1.97,0.26c-0.61,0.09-1.45,0.42-2.37,1.5c-1.68,1.69-2.27,3.38-2.49,4.25c-0.67,2.6,0,5.08,0.09,5.42
		c0.38,1.36,0.87,1.99,0.84,3.34c-0.03,1.13-0.4,2.05-0.71,2.65c-0.41,1.09-0.84,2.54-1.04,4.28c-0.25,2.19-0.06,4.06,0.18,5.37
		c-0.59-0.56-1.49-1.54-2.19-2.96c-1.02-2.08-0.73-3.31-1.78-5.2c-0.1-0.18-1.05-1.84-2.69-2.95c-3.46-2.32-7.91-0.72-8.59-0.47
		c-0.4,0.13-2.93,0.91-4.89-0.52c-1.13-0.83-1.55-2.01-1.83-2.8c-0.72-2.03-0.19-3.14-0.41-5.51c-0.1-1.09-0.38-2.7-1.25-4.64
		c-0.54-0.71-1.14-1.61-1.69-2.72c-0.66-1.34-1.05-2.57-1.29-3.56c-0.25-1.31-0.75-3.18-1.86-5.2c-1.21-2.21-2.65-3.74-3.68-4.68
		c-0.11,0.03-1.73,0.4-2.79-0.69c-0.48-0.49-0.64-1.06-0.7-1.36c-0.19-0.18-0.52-0.54-0.73-1.09c-0.26-0.71-0.17-1.34-0.11-1.6
		c2.15-0.89,3.95-1.5,5.19-1.9c2.52-0.8,3.71-1,5.05-2.04c1.29-1,2.02-2.23,2.43-3.09c0.31-0.68,1.09-2.08,2.68-2.96
		c2.22-1.22,5.11-0.93,7.47,0.71c1.53-0.17,3.34-0.5,5.32-1.11c1.47-0.45,2.77-0.97,3.89-1.49c1.72-1.05,3.83-2.15,6.31-3.12
		c1.85-0.72,3.58-1.24,5.14-1.62c0.87-0.29,1.88-0.57,3.01-0.76c1.87-0.33,3.53-0.35,4.85-0.27c0.79-0.23,1.57-0.47,2.36-0.7
		c0.69-0.6,1.77-1.4,3.23-2.03c1.46-0.63,2.69-0.82,3.94-0.97c1.94-0.24,4.75-0.49,8.33-0.5c1.09-0.12,2.35-0.2,3.74-0.14
		c1,0.04,1.92,0.14,2.75,0.26c0.05,0.01,1.15,0.31,1.28,1.06c0.04,0.22,0.01,0.62-0.71,1.33
		C442.62,521.22,441.42,521.6,440.89,521.79z" id="ST_punto_vacio_7"/>
	<g>
		<path  d="M268.08,508.16c-0.38-1.43-0.87-3.61-1.12-6.29c0,0-0.18-1.78-0.33-8.23c0,0-0.39-2.05-0.41-3.88
			c-0.02-2.56,0.68-3.73,0.09-4.14c-0.42-0.3-0.91,0.21-2.1,0.39c-1.56,0.24-2.3-0.41-3.98-0.77c-0.21-0.05-2.73-0.8-5.11,0.23
			c-1.09,0.47-2.86,1.41-4.51,3.17c-1.05,1.13-3.26,3.51-3.28,7.02c-0.02,2.67,1.24,4.66,1.91,5.57c0.29,0.64,0.72,1.18,1.27,1.63
			c1.42,1.02,2.84,2.02,4.21,3.09c0.68,0.53,1.4,1.03,2.1,1.72c0.96,0.95,2.82,4.5,2.82,4.5s0,0-0.59,3.59c0,0,2.01,3.62,4.31,4.05
			c5.9,7.21,7.1,9.5,6.68,9.93c-0.1,0.1-0.45,0.27-0.94,0.75c-0.28,0.27-0.53,0.57-0.75,0.9c-0.28,0.75-0.39,1.53-0.34,2.32
			c0.32,1.58,1.04,2.99,1.72,4.43c0.54,2.11,1.73,5.58,4.48,9.06c3.66,4.63,8.06,6.72,10.21,7.57c1.1-0.42,2.99-0.96,5.33-0.78
			c3.83,0.29,6.41,2.3,7.32,3.1c0.08-4.3,0.97-5.74,1.93-6.09c1.94-0.72,4.4,2.86,6.26,1.91c1.39-0.71,1.98-3.7,1.98-3.7
			c0,0,11.01-4.8,7.7-12.77c-1.3-7.65-4.06-12.92-13.48-9.68c-1.64,0.56-5.53-1.03-6.1-2.52c-2.26-5.83-8.03-6.19-12.2-8.96
			c-1.45-1.55-3.36-1.68-5.3-1.71c-1.09-0.08-3.69-0.39-6.08-1.81c-0.53-0.31-1.54-0.93-2.57-2.05
			C268.7,509.12,268.33,508.57,268.08,508.16z" id="ST_punto_vacio_8"/>
	</g>
	<path  d="M304.02,566.26c2.97,1.82,5.18,3.7,7.16,3c1.33-0.47,1.26-2.29,2.53-7.42c1.62-6.56,3.43-11.62,3.43-11.62
		c0.95-2.67,1.62-4.13,1.36-6.35c-0.3-2.58-1.7-4.97-2.51-4.84c-0.87,0.14,0.03,3.01-1.99,5.52c-2,2.5-4.7,3.55-4.7,3.55
		c-0.63,0.25-1.69,0.58-2.1,1.51c-0.27,0.61-0.02,0.93-0.22,1.61c-0.27,0.95-1.21,2.01-2.25,2.18c-1.72,0.28-2.61-2.07-4.91-2.05
		c-0.76,0.01-1.38,0.27-1.74,0.47c-0.33,1.75-0.66,3.51-0.99,5.26c-1.57-1.45-3.05-2.07-3.96-2.35c-1.92-0.6-2.97-0.25-4.79-0.65
		c-0.18-0.04-0.57-0.13-1.04-0.03c-0.57,0.12-0.64,0.39-1.17,0.57c-0.88,0.31-1.46-0.14-1.7,0.15c-0.13,0.15-0.16,0.51,0.41,1.44
		c-0.04,0.41-0.06,0.83-0.05,1.24c4.49,2.67,5.86,6.36,2.7,10.71c-3.25,4.47,0,6.5,2.69,8.92c5.11-0.41,0.88-5.52,3.58-7.14
		c1.15,0,2.3,0.01,3.45,0.01C297.22,569.41,303.6,565.99,304.02,566.26z" id="ST_punto_vacio_9"/>
	<!-- <path d=M246.21,525.5" id="ST_desconocido_1"/>
	<path d=M386.96,602.27" id="ST_desconocido_2"/> -->

</svg>


